<svg width="35" height="35" viewBox="0 0 35 35" fill="none" xmlns="http://www.w3.org/2000/svg">
<path d="M13.8542 16.7708L8.88123 19.316C7.50429 20.0208 6.46004 21.2402 6.04701 22.7308C5.35141 25.2412 4.375 29.2667 4.375 32.0833M21.1458 16.7708L26.1188 19.316C27.4957 20.0208 28.54 21.2402 28.953 22.7308C29.6486 25.2412 30.625 29.2667 30.625 32.0833" stroke="white" stroke-width="1.5" stroke-linecap="round"/>
<path d="M10.2083 32.0833C10.2083 30.4023 10.9375 24.7917 11.6687 23.3333" stroke="white" stroke-width="1.5" stroke-linecap="round"/>
<path d="M11.6667 24.7313C13.7607 25.0756 18.734 24.1115 21.875 17.5" stroke="white" stroke-width="1.5" stroke-linecap="round"/>
<path d="M17.5 29.1667C17.5 29.1667 24.7917 26.25 26.25 19.6875" stroke="white" stroke-width="1.5" stroke-linecap="round"/>
<path d="M29.1667 24.0625C28.5034 27.2818 26.9792 30.625 24.7917 32.0833" stroke="white" stroke-width="1.5" stroke-linecap="round"/>
<path d="M22.6049 13.21L23.2181 10.0667C23.9398 6.36776 21.1798 2.91667 17.5 2.91667C13.8201 2.91667 11.0602 6.36776 11.7819 10.0667L12.3951 13.21C12.8818 15.7044 15.0184 17.5 17.5 17.5C19.9816 17.5 22.1182 15.7044 22.6049 13.21Z" stroke="white" stroke-width="1.5" stroke-linecap="round"/>
<path d="M11.6667 8.75L16.0852 7.49029C17.0141 7.22546 17.9859 7.22546 18.9148 7.49029L23.3333 8.75" stroke="white" stroke-width="1.5" stroke-linecap="round" stroke-linejoin="round"/>
</svg>
